<?xml version="1.0" encoding="UTF-8"?>
<!DOCTYPE svg PUBLIC "-//W3C//DTD SVG 1.1//EN" "http://www.w3.org/Graphics/SVG/1.1/DTD/svg11.dtd">
<!-- Creator: CorelDRAW X6 -->
<svg xmlns="http://www.w3.org/2000/svg" xml:space="preserve" width="200px" height="200px" version="1.1" style="shape-rendering:geometricPrecision; text-rendering:geometricPrecision; image-rendering:optimizeQuality; fill-rule:evenodd; clip-rule:evenodd"
viewBox="0 0 200 200"
 xmlns:xlink="http://www.w3.org/1999/xlink">
 <defs>
  <style type="text/css">
   <![CDATA[
    .fil2 {fill:#614426}
    .fil1 {fill:#878787}
    .fil8 {fill:#88775C}
    .fil5 {fill:#B7A16C}
    .fil4 {fill:#DBC894}
    .fil6 {fill:#E58D28}
    .fil7 {fill:#E6DDC4}
    .fil3 {fill:#FAEFD5}
    .fil0 {fill:#FFFAE5}
   ]]>
  </style>
 </defs>
 <g id="Слой_x0020_1">
  <metadata id="CorelCorpID_0Corel-Layer"/>
  <path class="fil0" d="M188 129l0 59 -35 0 0 -57c-3,-25 35,-27 35,-2zm-144 -16l85 0 0 75 -85 0 0 -75z"/>
  <path class="fil1" d="M41 102l46 -9 47 9 0 19c-16,0 -32,-19 -49,-19 -15,0 -30,19 -45,19l0 -19z"/>
  <path class="fil2" d="M177 133l0 17 -12 0 0 -17c-1,-6 12,-7 12,-1z"/>
  <path class="fil3" d="M6 138l42 0c0,-1 0,-3 0,-4 0,-16 8,-30 21,-36l0 -22c-2,-25 35,-27 35,-2 0,8 0,16 0,24 13,7 21,21 21,37 0,2 0,3 0,4l48 0 0 49 -167 0 0 -49z"/>
  <path class="fil2" d="M30 158l0 17 -9 0 0 -17c-1,-6 9,-7 9,-1z"/>
  <path class="fil4" d="M86 45c10,0 19,8 19,19 0,1 3,2 3,2 0,1 0,4 -4,3 -1,-1 -2,-1 -2,-1 -7,-3 -23,-3 -30,0 -1,1 -2,1 -3,2 -3,1 -3,-2 -3,-3 -1,-3 2,-2 2,-3 0,-10 8,-19 19,-19zm1 84c7,0 7,10 0,10 -7,0 -7,-10 0,-10zm84 -26c10,0 19,8 19,19 0,1 3,2 3,2 0,1 0,4 -4,3 -1,-1 -2,-1 -2,-1 -7,-3 -23,-3 -30,0 -1,1 -2,1 -3,2 -3,1 -3,-2 -3,-3 -1,-3 2,-2 2,-3 0,-10 8,-19 19,-19z"/>
  <path class="fil5" d="M87 39c1,0 2,2 2,3 0,4 -6,4 -6,0 0,-1 1,-3 2,-3 0,0 0,0 0,-1 -1,0 -2,-2 -1,-2l0 -8 -1 -1c-2,-1 -1,-4 1,-3l0 0 0 -3 -4 0c-1,1 -2,1 -2,-1 -2,0 -2,-2 0,-2 0,-1 2,-2 2,-1l4 0 0 -3c-1,-1 -1,-2 1,-2 0,-2 2,-2 2,0 1,0 2,1 1,2l0 3 4 0c1,-1 2,-1 2,1 2,0 2,2 0,2 0,1 -2,2 -2,1l-4 0 0 5 2 1c2,1 1,4 -2,3l0 7c1,1 1,2 -1,2 0,0 0,1 0,1zm84 58c1,0 2,2 2,3 0,4 -6,4 -6,0 0,-1 1,-3 2,-3 0,0 0,0 0,-1 -1,0 -2,-2 -1,-2l0 -8 -1 -1c-2,-1 -1,-4 1,-3l0 0 0 -3 -4 0c-1,1 -2,1 -2,-1 -2,0 -2,-2 0,-2 0,-1 2,-2 2,-1l4 0 0 -3c-1,-1 -1,-2 1,-2 0,-2 2,-2 2,0 1,0 2,1 1,2l0 3 4 0c1,-1 2,-1 2,1 2,0 2,2 0,2 0,1 -2,2 -2,1l-4 0 0 5 2 1c2,1 1,4 -2,3l0 7c1,1 1,2 -1,2 0,0 0,1 0,1z"/>
  <path class="fil2" d="M153 158l0 17 -9 0 0 -17c-1,-6 9,-7 9,-1z"/>
  <path class="fil6" d="M99 156l0 32 -25 0 0 -31c-2,-12 25,-13 25,-1z"/>
  <path class="fil7" d="M0 188l41 0 0 -48 11 0 0 48 70 0 0 -48 11 0 0 48 68 0 0 6c-67,0 -133,0 -200,0l0 -6zm173 -35l23 0 0 35 -23 0 0 -35z"/>
  <path class="fil8" d="M183 162l0 17 -9 0 0 -17c-1,-6 9,-7 9,-1zm-95 -91l0 17 -3 0 0 -17c0,-6 3,-7 3,-1zm-13 3l0 17 -3 0 0 -17c0,-6 3,-7 3,-1zm26 0l0 17 -3 0 0 -17c0,-6 3,-7 3,-1z"/>
  <path class="fil1" d="M17 131l30 0c4,-39 73,-39 77,0l42 0 12 9 -56 0c-4,-42 -66,-42 -70,0l-51 0 17 -9zm156 17l22 0 4 7 -27 0 0 -7z"/>
 </g>
</svg>
