<svg
   width="24"
   height="24"
   xmlns="http://www.w3.org/2000/svg">
  <path
     fill-rule="evenodd"
     fill="#000000"
     stroke-width="0.713375"
     d="m 17.711616,22.972235 h -4.564888 v -11.00738 h 5.63495 v 9.898795 c 0,0.966624 -0.12484,1.108585 -1.070062,1.108585 z M 13.146728,8.4743105 h 4.564888 c 0.945222,0 1.070062,0.783286 1.070062,1.7506225 v 1.001579 h -5.63495 z M 14.517834,7.9635338 H 10.084207 C 8.3885144,7.4912794 6.6557264,6.5061081 6.9061214,4.8325297 7.1458154,3.2288622 8.7894314,3.3715372 9.8480804,4.047817 10.210475,4.2796639 10.517226,4.5585936 10.797583,4.8667718 10.718399,4.5486064 10.655621,4.2311544 10.609965,3.9229763 10.455876,2.8728879 10.411647,1.3319973 11.617964,0.90183203 13.08823,0.37750122 13.937147,1.6936786 13.932867,3.0376776 c -0.0021,0.6812733 -0.121274,1.3625467 -0.314599,2.0152851 0.352408,-0.423745 0.741197,-0.8046874 1.231999,-1.0743431 1.101452,-0.6056556 2.722241,-0.6791333 2.842087,0.9837445 0.115567,1.6029541 -1.538037,2.5438962 -3.17452,3.0011697 z M 11.291239,7.1153306 C 11.083647,6.8121461 10.876054,6.5082482 10.656334,6.2143376 10.314627,5.7570641 9.9636476,5.2726823 9.4785524,4.9630774 9.1439794,4.7497782 8.5775594,4.3809632 8.1580944,4.5186446 7.8042604,4.6349247 7.7785794,5.148555 7.9019934,5.4503127 c 0.311745,0.7654517 1.36326,1.1777826 2.0695012,1.4146232 0.4572734,0.154089 0.9316674,0.2910571 1.4124824,0.3766622 -0.03995,-0.05279 -0.07276,-0.097732 -0.09274,-0.1262675 z m 1.361833,-5.2190535 c -0.251109,-0.2154393 -0.79684,-0.1797705 -0.977325,0.1298343 -0.426598,0.7290696 -0.151235,1.8212471 0.05921,2.5788516 0.136967,0.494369 0.295337,0.9994388 0.505069,1.4766868 0.370956,-0.9402286 0.734064,-1.9011451 0.73763,-2.9169915 7.13e-4,-0.3930697 0.0021,-0.9880247 -0.324584,-1.2683812 z m 3.673169,2.6081 c -0.440152,0.00499 -0.863184,0.2118725 -1.223439,0.4587003 -0.536458,0.3666749 -0.930955,0.9017064 -1.30833,1.4296041 -0.200459,0.2810698 -0.396637,0.5642798 -0.590675,0.8503433 0.480102,-0.084179 0.95521,-0.2190063 1.406063,-0.3780889 0.660585,-0.2325603 1.81982,-0.646318 2.069502,-1.4146232 0.101297,-0.311745 0.107719,-0.9509292 -0.353121,-0.9459356 z M 11.432486,11.226512 H 5.1562114 v -1.001579 c 0,-0.9673365 0.766165,-1.7506225 1.712101,-1.7506225 h 4.5641736 z m 0,11.745723 H 6.8683124 c -0.945936,0 -1.712101,-0.141961 -1.712101,-1.108585 v -9.898795 h 6.2762746 z"
/>
</svg>
