<?xml version="1.0" encoding="UTF-8" standalone="no"?>
<svg
   width="24"
   height="24"
   version="1.1"
   id="svg1"
   sodipodi:docname="pin.svg"
   inkscape:version="1.4 (e7c3feb100, 2024-10-09)"
   xmlns:inkscape="http://www.inkscape.org/namespaces/inkscape"
   xmlns:sodipodi="http://sodipodi.sourceforge.net/DTD/sodipodi-0.dtd"
   xmlns="http://www.w3.org/2000/svg"
   xmlns:svg="http://www.w3.org/2000/svg">
  <defs
     id="defs1" />
  <sodipodi:namedview
     id="namedview1"
     pagecolor="#ffffff"
     bordercolor="#000000"
     borderopacity="0.25"
     inkscape:showpageshadow="2"
     inkscape:pageopacity="0.0"
     inkscape:pagecheckerboard="0"
     inkscape:deskcolor="#d1d1d1"
     inkscape:zoom="33.333333"
     inkscape:cx="12"
     inkscape:cy="12"
     inkscape:window-width="2560"
     inkscape:window-height="1011"
     inkscape:window-x="0"
     inkscape:window-y="0"
     inkscape:window-maximized="1"
     inkscape:current-layer="svg1" />
  <path
     fill-rule="evenodd"
     fill="#000000"
     d="M 15.858515,14.532099 H 8.0802363 c -0.9537161,0 -1.7276743,-0.805165 -1.7276743,-1.79758 0,-0.993662 0.7739582,-1.79758 1.7276743,-1.79758 h 7.7782787 c 0.954965,0 1.728923,0.803918 1.728923,1.79758 0,0.992415 -0.773958,1.79758 -1.728923,1.79758 z M 14.058439,4.6454086 14.994678,10.038149 H 8.9453218 L 9.881561,4.6454086 Z M 14.56276,3.7466185 H 9.3772403 c -0.7165354,0 -1.297004,-0.6041866 -1.297004,-1.3481851 C 8.0802363,1.6531866 8.6607049,1.049 9.3772403,1.049 H 14.56276 c 0.715287,0 1.295755,0.6041866 1.295755,1.3494334 0,0.7439985 -0.580468,1.3481851 -1.295755,1.3481851 z M 11.97,23.52 10.672996,15.43089 h 2.59276 z"
     id="path1"
     style="stroke-width:1.24832" />
</svg>
