<svg version="1.2" xmlns="http://www.w3.org/2000/svg" viewBox="0 0 80 80" width="80" height="80"><style>tspan{white-space:pre}.a{fill:#fff}</style><path fill-rule="evenodd" class="a" d="m62 27.7c0 1.4 0 33.7 0 35.4 0 0.5-0.4 0.9-0.9 0.9-0.5 0-0.9-0.4-0.9-0.9v-2.7c-1.1 0-37.3 0-38.4 0v2.7c0 0.5-0.4 0.9-0.9 0.9-0.5 0-0.9-0.4-0.9-0.9 0-1.5 0-32.5 0-35.4 0-3.2 2.5-5.7 5.7-5.7 1 0 27.6 0 30.5 0 3.1 0 5.7 2.5 5.8 5.7zm-8.8 18.8v-1.8c0-0.9-0.8-1.7-1.7-1.7h-4.5c-0.9 0-1.7 0.8-1.7 1.7v1.8zm1.7 0h1.7v-7h-1.7c0 0.8 0 4.8 0 7zm3.5-7.8v7.9h1.7v-10.5c-4 0-14.3 0-18.3 0v10.5h1.7v-1.9c0-1.8 1.6-3.4 3.4-3.4h4.6q0.9 0 1.7 0.4v-3c0-0.5 0.4-0.9 0.9-0.9h3.4c0.5 0 0.9 0.4 0.9 0.9zm-2.6-6.3c0-0.9-0.8-1.7-1.7-1.7h-6.2c-1 0-1.7 0.8-1.7 1.7v1.9h9.6zm0.2-8.7h-14.3v10.5h2.7v-1.8c0-1.9 1.5-3.5 3.4-3.5h6.3c1.8 0 3.4 1.6 3.4 3.5v1.8h2.6v-6.5c0-2.2-1.8-4-4.1-4zm-34.2 35h18.3c0-1.2 0-33.8 0-35h-14.2c-2.3 0-4.1 1.9-4.1 4.1zm19.9-10.5v10.5h1.8c0-3 0-5 0-7.9 0-0.5 0.4-0.9 0.9-0.9 1.3 0 11.7 0 13.1 0 0.5 0 0.9 0.4 0.9 0.9 0 2.9 0 5 0 7.9h1.7v-10.5c-5.6 0-12.7 0-18.4 0zm8.9 3.5h-5.3v2.7h5.3zm1.6 0v2.6h4.4v-2.6zm-6.9 7h5.3v-2.6h-5.3zm11.3 0v-2.7h-4.3v2.7zm-22-26c0.3 0.3 0.3 0.9 0 1.3l-6.6 6.5c-0.3 0.4-0.9 0.4-1.2 0-0.4-0.3-0.4-0.9 0-1.2l6.5-6.6c0.4-0.4 0.9-0.4 1.3 0zm0 8.7c0.3 0.4 0.3 1 0 1.3l-6.6 6.6c-0.3 0.3-0.9 0.3-1.2 0-0.4-0.4-0.4-0.9 0-1.3l6.5-6.6c0.4-0.3 0.9-0.3 1.3 0zm37-8.9l1.6-1.6 1.6 1.6-1.6 1.6zm-5.9-10.3c0.1 0.2 0.3 0.5 0.3 0.8 0 0.3-0.1 0.5-0.3 0.8-0.5 0.5-1.2 0.5-1.7 0-0.2-0.2-0.3-0.5-0.3-0.8 0-0.3 0-0.5 0.3-0.8 0.2-0.2 0.6-0.4 0.8-0.4 0.3 0.1 0.6 0.2 0.9 0.4zm-5.4-7.7l1.6-1.6 1.6 1.6-1.6 1.6zm-13.6 1.3l1.6-1.6 1.6 1.6-1.6 1.6zm-10.5 1.9c0.2 0.2 0.4 0.5 0.4 0.8 0 0.2-0.1 0.5-0.4 0.8-0.4 0.4-1.2 0.4-1.6 0-0.2-0.2-0.4-0.6-0.4-0.8 0-0.3 0.1-0.6 0.4-0.8 0.2-0.2 0.5-0.4 0.8-0.4 0.3 0.1 0.5 0.2 0.8 0.4z"/></svg>