<svg version="1.2" xmlns="http://www.w3.org/2000/svg" viewBox="0 0 80 80" width="80" height="80"><style>tspan{white-space:pre}.a{fill:#fff}</style><path fill-rule="evenodd" class="a" d="m64.7 29.6c0.1 0.1 0.3 0.3 0.3 0.6 0 0.2-0.1 0.5-0.3 0.7-0.2 0.1-0.4 0.3-0.7 0.3-0.5 0-0.9-0.5-0.9-1 0-0.2 0-0.5 0.3-0.6 0.1-0.2 0.3-0.3 0.6-0.3 0.3 0 0.5 0.1 0.7 0.3zm-4.3 27.3l1.3-1.4 1.3 1.4-1.3 1.3zm0.6-37.5c0.1 0.1 0.3 0.3 0.3 0.6 0 0.2-0.1 0.5-0.3 0.7-0.2 0.1-0.4 0.2-0.6 0.2-0.5 0-1-0.4-1-0.9 0-0.3 0.1-0.6 0.3-0.7 0.2-0.2 0.4-0.3 0.7-0.3 0.3 0 0.4 0.1 0.6 0.4zm-11.2 38.1c0.2 0.2 0.3 0.4 0.3 0.7 0 0.2 0 0.5-0.3 0.7-0.1 0.1-0.3 0.3-0.6 0.3-0.6 0-1-0.5-1-1 0-0.2 0.1-0.5 0.3-0.7 0.1-0.1 0.4-0.3 0.7-0.3 0.3 0 0.5 0.2 0.6 0.3zm-5.1-32.4l1.3-1.3 1.3 1.3-1.3 1.3zm-0.1 26.2l1.3-1.3 1.3 1.3-1.3 1.3zm-18.9-12.4c0.1 0.2 0.3 0.4 0.3 0.7 0 0.3-0.1 0.5-0.3 0.7-0.2 0.1-0.4 0.3-0.7 0.3-0.5 0-1-0.5-1-1 0-0.2 0.1-0.5 0.3-0.7 0.2-0.1 0.4-0.3 0.7-0.3 0.3 0.1 0.5 0.2 0.7 0.3zm12.4 14.7q-0.2 0-0.4-0.1h-8.6q-0.1 0.1-0.3 0.1-0.2 0-0.4-0.1h-1.5v2.9h1.5q0.2-0.1 0.4-0.1 0.2 0 0.4 0.1h8.5q0.2-0.1 0.4-0.1 0.2 0 0.4 0.1h1.5v-2.9h-1.6q-0.1 0.1-0.3 0.1zm1-2h1.8c0.5 0 0.9 0.4 0.9 1v4.7c0 0.5-0.4 0.9-0.9 0.9h-1.8v1.9c-0.1 0.5-0.5 1-1 1-0.5 0-1-0.5-1-1v-1.9h-7.3v1.9c-0.1 0.5-0.5 1-1 1-0.5 0-1-0.5-1-1v-1.9h-1.8c-0.5 0-1-0.4-1-0.9v-4.7c0-0.6 0.5-1 1-1h1.8v-24.1h-1.8c-0.5 0-1-0.4-1-1v-4.6c0-0.6 0.5-1 1-1h1.8v-1.9c0-0.5 0.5-1 1-1 0.5 0 1 0.5 1 1v1.9h7.3v-1.9c0-0.5 0.5-1 1-1 0.5 0 1 0.5 1 1v1.9h1.8c0.5 0 0.9 0.4 0.9 1v4.6c0 0.6-0.4 1-0.9 1h-1.8v7.4h4.6q0 0 0 0c1.9-3.9 5.8-6.5 10.2-6.5 6.2 0 11.1 5 11.1 11.2 0 6.2-4.9 11.2-11.1 11.2-4.4 0-8.3-2.6-10.2-6.5q0 0 0 0h-4.6zm-0.1-14.8v5.6h4.1q-0.4-1.4-0.4-2.8 0-1.4 0.4-2.8zm-1.9-0.9v-8.4h-7.4v24.1h7.4c0 0 0-15.7 0-15.7zm1-10.3q0.2 0 0.3 0h1.5v-2.8h-13v2.8h1.5q0.2 0 0.4 0 0.2 0 0.3 0h8.6q0.2 0 0.4 0zm-2.9 7.5h-3.7c-0.5 0-1-0.4-1-1 0-0.5 0.5-0.9 1-0.9h3.7c0.6 0 1 0.4 1 0.9 0 0.6-0.4 1-1 1zm0 2.8h-3.7c-0.5 0-1-0.5-1-1 0-0.5 0.5-1 1-1h3.7c0.6 0 1 0.5 1 1 0 0.5-0.4 1-1 1zm0 2.8h-3.7c-0.5 0-1-0.5-1-1 0-0.5 0.5-0.9 1-0.9h3.7c0.6 0 1 0.4 1 0.9 0 0.5-0.4 1-1 1zm0 2.8h-3.7c-0.5 0-1-0.5-1-1 0-0.5 0.5-1 1-1h3.7c0.6 0 1 0.5 1 1 0 0.5-0.4 1-1 1zm18.6 0.8l-3.4 2.4c2 1.4 4.7 1.4 6.7 0.2zm-5.5 3c-0.1-0.1-0.1-0.1-0.2-0.1q-0.1-0.2-0.2-0.4c-1.3-1.4-2-3.3-2-5.3 0-1.9 0.6-3.7 1.8-5.1 1.7-2.2 4.6-3.3 7.4-2.8q0.2 0 0.4 0.1 0.1 0 0.2 0c3.6 0.8 6.2 4.1 6.2 7.8 0 4.5-3.6 8-8 8-2 0-3.9-0.7-5.3-2q-0.2-0.1-0.3-0.2zm4.9-5c0.3-0.2 0.8-0.2 1.2 0l4.2 3.3q0.4-0.5 0.7-1l-4.5-3.5c-0.2-0.1-0.4-0.4-0.4-0.7v-4.9c-0.3-0.1-0.6-0.1-1 0v5c0 0.3-0.2 0.5-0.4 0.7l-4.5 3.3q0.2 0.4 0.5 0.8zm-1.7-2.4v-4c-2.5 1.1-4.1 3.9-3.7 6.6zm4.8 0l3.7 2.8q0.1-0.5 0.1-1.1c0-2.5-1.6-4.7-3.8-5.7zm-2.4-7.7c-3.8 0-7.3 2.5-8.7 6.2-0.4 1-0.6 2-0.6 3.2 0 5.2 4.3 9.3 9.3 9.3 5.2 0 9.3-4.2 9.3-9.3 0-5.2-4.1-9.4-9.3-9.4z"/></svg>