<svg version="1.2" xmlns="http://www.w3.org/2000/svg" viewBox="0 0 80 80" width="80" height="80"><style>tspan{white-space:pre}.a{fill:#fff}</style><path fill-rule="evenodd" class="a" d="m64.6 32.6l1.6-1.6 1.6 1.6-1.6 1.5zm-5.9-10.2c0.1 0.1 0.3 0.5 0.3 0.8 0 0.2-0.1 0.5-0.3 0.8-0.5 0.4-1.2 0.4-1.7 0-0.1-0.2-0.3-0.6-0.3-0.8 0-0.3 0.1-0.6 0.3-0.8 0.2-0.2 0.6-0.4 0.8-0.4 0.3 0.1 0.6 0.2 0.9 0.4zm-5.4-7.7l1.6-1.6 1.6 1.6-1.6 1.6zm-13.6 1.3l1.6-1.6 1.6 1.6-1.6 1.6zm-10.5 1.9c0.2 0.1 0.4 0.5 0.4 0.8 0 0.2-0.1 0.5-0.4 0.8-0.4 0.4-1.1 0.4-1.6 0-0.2-0.2-0.4-0.6-0.4-0.8 0-0.3 0.1-0.6 0.4-0.8 0.2-0.2 0.5-0.4 0.8-0.4 0.3 0.1 0.6 0.2 0.8 0.4zm-8.8 34.4c-0.6 0-1.1-0.5-1.1-1.1v-6.7h-1.1c-0.7 0-1.2-0.5-1.2-1.2v-19c0-0.6 0.5-1.2 1.2-1.2h32.9c0.6 0 1.1 0.6 1.1 1.2v5.4h5.7c0.3 0 0.7 0.2 0.9 0.5l9 13.5c0.1 0.2 0.2 0.4 0.2 0.6v6.8c0 0.8-0.5 1.2-1.1 1.2h-3.6q0.1 0.6 0.1 1.1c0 1.2-0.4 2.4-1 3.3h2.2c0.7 0 1.2 0.6 1.2 1.2-0.1 0.7-0.5 1.2-1.2 1.2h-46.4c-0.7 0-1.2-0.6-1.2-1.2 0-0.6 0.5-1.2 1.2-1.2h5.6c-0.7-0.9-1.1-2.1-1.1-3.3q0-0.5 0.1-1.1zm0-10.2q0.3 0 0.6 0.2h28.9v-11q-0.1-0.2-0.1-0.4 0-0.3 0.1-0.5v-0.5h-12.5c-0.6 0-1.1-0.6-1.1-1.2 0-0.6 0.5-1.2 1.1-1.2h12.5v-2.1h-30.6v16.9h0.5q0.3-0.2 0.6-0.2zm1.2 7.9h2.2c1.1-1.4 2.8-2.2 4.5-2.2 1.7 0 3.4 0.8 4.5 2.2h17v-5.5h-28.2zm30.5 0h1.2c1-1.3 2.7-2.1 4.4-2.1 1.8 0 3.4 0.8 4.5 2.1h3.5v-5.3l-2.4-3.6h-11.1v2.4q0 0.1-0.1 0.3zm9.6-11.3l-4.5-6.7h-5v6.7zm-27.9 13.6q0.1 0.5 0.1 1.1c0 1.2-0.3 2.4-1 3.3h20.3c-0.7-0.9-1.1-2.1-1.1-3.3q0-0.6 0.1-1.1zm-5.4-2.2c-1.2 0-2.4 0.6-2.9 1.7-0.3 0.5-0.5 1-0.5 1.7 0 1.5 1 2.7 2.4 3.2h2.2c1.3-0.5 2.3-1.7 2.3-3.2 0-0.5-0.1-1-0.3-1.4-0.2-0.2-0.4-0.5-0.5-0.8-0.7-0.8-1.7-1.2-2.7-1.2zm29.4 5.6c-1.2 0-2.2-1-2.2-2.2 0-0.4 0.1-0.8 0.2-1.2 0.4-0.7 1.2-1.1 2-1.1 0.8 0 1.6 0.5 2 1.1 0.2 0.4 0.3 0.7 0.3 1.2 0 1.2-1 2.2-2.3 2.2zm-29.4 0c-1.3 0-2.3-1-2.3-2.2 0-0.4 0.1-0.8 0.3-1.2 0.4-0.7 1.2-1.1 2-1.1 0.8 0 1.5 0.5 2 1.1 0.2 0.4 0.3 0.7 0.3 1.2 0 1.2-1 2.2-2.3 2.2zm27.2-10.1h-1.2c-0.7 0-1.2-0.6-1.2-1.2 0-0.6 0.5-1.2 1.2-1.2h1.2c0.6 0 1.1 0.6 1.1 1.2 0 0.6-0.5 1.2-1.1 1.2zm2.2 4.5c-1.2 0-2.3 0.6-2.9 1.7-0.2 0.5-0.4 1-0.4 1.7 0 1.5 1 2.7 2.3 3.2h2.2c1.4-0.5 2.4-1.7 2.4-3.2 0-0.5-0.2-1-0.3-1.4-0.3-0.2-0.5-0.5-0.5-0.8-0.8-0.8-1.8-1.2-2.8-1.2zm-22.1-15.3c0.4-0.5 1-0.8 1.7-1 1-0.3 2-0.2 2.9 0.3 0.6 0.2 0.8 1 0.5 1.5-0.3 0.5-1 0.7-1.5 0.5-0.4-0.2-0.9-0.3-1.3-0.1-0.5 0.1-0.8 0.4-1 0.8q0 0 0 0c-0.4 0.8-0.1 1.9 0.7 2.2 0.6 0.3 0.7 1 0.5 1.5-0.2 0.4-0.7 0.6-1 0.6-0.2 0-0.4 0-0.6-0.1-1.5-0.8-2.3-2.6-2-4.2l-6.6-3.5c-0.5 0.4-1.1 0.8-1.7 1-0.4 0-0.7 0.1-1.2 0.1-0.6 0-1.2-0.1-1.8-0.4-0.5-0.3-0.7-1-0.4-1.5 0.2-0.6 1-0.8 1.5-0.5 0.4 0.2 0.8 0.3 1.3 0.1 0.4-0.1 0.8-0.4 1-0.8q0 0 0 0c0.1-0.4 0.2-0.8 0.1-1.3-0.1-0.4-0.5-0.8-0.9-1-0.5-0.2-0.7-0.9-0.4-1.5 0.3-0.5 1-0.7 1.5-0.4 0.9 0.4 1.7 1.3 1.9 2.3q0.3 0.9 0.1 1.9z"/></svg>