<svg version="1.2" xmlns="http://www.w3.org/2000/svg" viewBox="0 0 80 80" width="80" height="80"><style>tspan{white-space:pre}.a{fill:#fff}</style><path fill-rule="evenodd" class="a" d="m25.3 18.6c0-0.3 0.3-0.6 0.6-0.6h32.1c0.3 0 0.6 0.3 0.6 0.6v3.4h1.1c1.8 0 3.4 1.5 3.4 3.4v3.4h3.3c0.3 0 0.6 0.3 0.6 0.6v5.3c0 0.3-0.3 0.5-0.6 0.5l-7.6 1.1v15.8c0.1 4.8-3.9 8.7-8.7 8.9q-0.1 0-0.1 0c0 0 0 0-0.2 0q-0.1 0-0.1 0-0.1 0-0.2 0h-22.7c-3.2 0-5.8-2.4-5.8-5.2 0-2.5 1.8-4.6 4.3-5.1zm32.2 0.7h-30.9l0.2 31.2c-0.2 0 0 0 0 0 0 0 23 0 23.2 0 0.3 0 0.6 0.3 0.6 0.6 0 0.3-0.3 0.6-0.6 0.7-2.3 0.2-4.2 1.9-4.2 4 0 2.1 1.9 3.8 4.2 4 0 0 0 0 0.1 0 4.2-0.2 7.5-3.6 7.5-7.8v-15.5l-4.5 0.6v1.2h2.1c0.2 0 0.5 0.3 0.5 0.6v9.4c0 0.4-0.3 0.7-0.5 0.7h-6.1c-0.3 0-0.6-0.3-0.6-0.5v-9.6c0-0.3 0.3-0.6 0.6-0.6h1.7v-1.8c0-0.2 0.3-0.5 0.6-0.5l6.2-0.8v-1.5h-17.7c-0.6 0-1.2-0.1-1.7-0.4-0.2 0.2-0.4 0.2-0.4-0.2v-0.1c-0.8-0.7-1.3-1.6-1.3-2.7v-4.9c0-0.8 0.3-1.7 1-2.4 0.7-0.7 1.4-1 2.4-1h17.6zm1.3 15.8l6.9-0.9v-4.2h-2.6v0.4c0.1 1.8-1.4 3.4-3.3 3.4h-1zm-36.5 20.7c0 2.3 2 4 4.5 4h19.7c-1-0.8-1.6-1.8-1.9-2.9q-0.1-0.5-0.1-1.1c0-1.5 0.7-3.1 2-3.9h-19.7c-2.5 0-4.5 1.8-4.5 3.9zm6.9 1.9h-2.5c-0.4 0-0.7-0.4-0.7-0.8 0-0.4 0.3-0.8 0.7-0.8h2.5c0.3 0 0.6 0.4 0.6 0.8 0 0.4-0.1 0.8-0.6 0.8zm12.1 0h-8.6c-0.3 0-0.6-0.4-0.6-0.8 0-0.4 0.3-0.8 0.6-0.8h8.6c0.3 0 0.6 0.4 0.6 0.8 0 0.4-0.3 0.8-0.6 0.8zm9-10.7h3.3v-6.6h-3.3zm7.7-19.9h-5.4c-0.8 0-1.5-0.6-1.5-1.2 0-0.6 0.7-1.3 1.5-1.3h5.4c0.7 0 1.5 0.7 1.5 1.3 0 0.6-0.8 1.2-1.5 1.2zm-27.3 3.9c-0.3 0-0.6-0.3-0.6-0.6v-2.5c0-0.3 0.3-0.6 0.6-0.6 0.3 0 0.6 0.3 0.6 0.6v2.5c0.1 0.3-0.2 0.6-0.6 0.6zm0 6.9c-0.3 0-0.6-0.3-0.6-0.6v-2.4c0-0.3 0.3-0.5 0.6-0.5 0.3 0 0.6 0.2 0.6 0.5v2.4c0.1 0.3-0.2 0.6-0.6 0.6zm0 5.9c-0.3 0-0.6-0.3-0.6-0.6v-2.4c0-0.3 0.3-0.5 0.6-0.5 0.3 0 0.6 0.2 0.6 0.5v2.4c0.1 0.3-0.2 0.6-0.6 0.6zm3.1-9.5c-0.3 0-0.6-0.3-0.6-0.6v-2.5c0-0.3 0.3-0.6 0.6-0.6 0.3 0 0.6 0.3 0.6 0.6v2.5c0.1 0.3-0.2 0.6-0.6 0.6zm0 6.5c-0.3 0-0.6-0.2-0.6-0.5v-2.4c0-0.3 0.3-0.6 0.6-0.6 0.3 0 0.6 0.3 0.6 0.6v2.4c0.1 0.3-0.2 0.5-0.6 0.5zm6.1 3c-0.2 0-0.5-0.3-0.5-0.6v-2.4c0-0.3 0.3-0.5 0.5-0.5 0.3 0 0.6 0.2 0.6 0.5v2.4c0.2 0.3-0.1 0.6-0.6 0.6zm4-3c-0.3 0-0.5-0.2-0.5-0.5v-2.4c0-0.3 0.2-0.6 0.5-0.6 0.3 0 0.6 0.3 0.6 0.6v2.4c0 0.3-0.3 0.5-0.6 0.5zm-4-17.5c-0.5 0-1.1 0.3-1.4 0.6-0.4 0.4-0.6 1-0.6 1.4v4.9c0 1.2 1 2.1 2.2 2.1h19.7c1.1 0 2.2-0.9 2.2-2.1v-4.8c0-1.1-1.1-2.1-2.2-2.1zm-9.3 1.1c-0.3 0-0.5-0.3-0.5-0.6v-2.6c0-0.2 0.2-0.5 0.5-0.5 0.3 0 0.6 0.3 0.6 0.5v2.6c0.2 0.3-0.1 0.6-0.6 0.6zm3.4 3.3c-0.3 0-0.6-0.3-0.6-0.6v-2.5c0-0.3 0.3-0.6 0.6-0.6 0.3 0 0.6 0.3 0.6 0.6v2.5c0.1 0.3-0.2 0.6-0.6 0.6zm3.3 13.2c-0.3 0-0.6-0.3-0.6-0.6v-2.5c0-0.3 0.3-0.6 0.6-0.6 0.3 0 0.6 0.3 0.6 0.6v2.5c0.1 0.3-0.1 0.6-0.6 0.6zm4.2-14.6c0.2 0.2 0.4 0.5 0.4 0.9 0 0.3-0.1 0.7-0.4 0.9-0.2 0.2-0.5 0.4-0.9 0.4-0.7 0-1.3-0.6-1.3-1.3 0-0.3 0.1-0.7 0.4-0.9 0.2-0.2 0.5-0.4 0.9-0.4 0.4 0 0.7 0.2 0.9 0.4zm-11.9 20.7l1.8-1.8 1.8 1.8-1.8 1.7zm-13.2-16.4c0.2 0.2 0.4 0.5 0.4 0.9 0 0.3-0.1 0.7-0.4 0.9-0.3 0.2-0.5 0.3-0.8 0.3-0.7 0-1.3-0.6-1.3-1.3 0-0.3 0.1-0.7 0.4-0.9 0.3-0.2 0.5-0.4 0.9-0.4 0.4 0 0.6 0.2 0.8 0.5zm-1.2 17.3c0.2 0.2 0.4 0.5 0.4 0.9 0 0.3-0.1 0.7-0.4 0.9-0.2 0.2-0.5 0.4-0.9 0.4-0.7 0-1.4-0.6-1.4-1.3 0-0.3 0.1-0.7 0.5-0.9 0.2-0.2 0.5-0.4 0.9-0.4 0.4 0 0.7 0.2 0.9 0.4zm-1-27.6l1.8-1.8 1.8 1.8-1.8 1.8zm-6.2 19.2l1.8-1.8 1.8 1.8-1.8 1.8z"/></svg>