<?xml version="1.0" encoding="UTF-8" standalone="no"?>
<svg
   width="40"
   height="40"
   version="1.1"
   xmlns="http://www.w3.org/2000/svg"><path
     fill-rule="evenodd"
     fill="rgb(255, 255, 255)"
     d="m 29.113842,38.940452 h -7.678 v -19.392 h 10.558 v 16.478 c 0,1.609 -1.29,2.914 -2.88,2.914 z m -7.678,-25.203 h 7.678 c 1.59,0 2.88,1.305 2.88,2.914 v 1.668 h -10.558 z m 2.305,-0.849 h -7.458 c -2.851,-0.787 -5.767,-2.426 -5.346,-5.212 0.404,-2.67 3.169,-2.432 4.949,-1.307 0.61,0.386 1.126,0.851 1.597,1.364 -0.133,-0.53 -0.238,-1.058 -0.315,-1.571 -0.259,-1.749 -0.333,-4.313 1.696,-5.03 2.473,-0.87299998 3.901,1.319 3.894,3.556 -0.004,1.134 -0.205,2.267 -0.53,3.354 0.593,-0.705 1.247,-1.339 2.073,-1.788 1.852,-1.008 4.579,-1.131 4.78,1.638 0.195,2.668 -2.586,4.234 -5.34,4.996 z m -5.427,-1.413 c -0.349,-0.504 -0.698,-1.01 -1.068,-1.499 -0.575,-0.761 -1.166,-1.568 -1.981,-2.084 -0.562,-0.355 -1.516,-0.969 -2.221,-0.739 -0.596,0.193 -0.638,1.049 -0.432,1.55 0.525,1.275 2.294,1.962 3.482,2.356 0.77,0.256 1.568,0.484 2.376,0.626 -0.067,-0.087 -0.123,-0.162 -0.156,-0.21 z m 2.291,-8.687 c -0.423,-0.359 -1.34,-0.299 -1.645,0.216 -0.716,1.214 -0.253,3.031 0.1,4.293 0.231,0.823 0.497,1.663 0.849,2.457 0.625,-1.564 1.236,-3.164 1.241,-4.854 0.002,-0.655 0.004,-1.645 -0.545,-2.112 z m 6.179,4.342 c -0.741,0.008 -1.452,0.352 -2.059,0.762 -0.901,0.611 -1.565,1.502 -2.2,2.381 -0.337,0.467 -0.667,0.939 -0.993,1.415 0.807,-0.14 1.606,-0.364 2.364,-0.629 1.111,-0.387 3.061,-1.077 3.482,-2.356 0.171,-0.519 0.18,-1.582 -0.594,-1.573 z m -8.232,11.189 H 7.9938421 v -1.668 c 0,-1.609 1.289,-2.914 2.8799999,-2.914 h 7.678 z m 0,20.621 h -7.678 c -1.5909999,0 -2.8799999,-1.305 -2.8799999,-2.914 v -16.478 H 18.551842 Z"
     id="path1"
     style="fill:#ffffff;fill-opacity:1" /><path
     fill-rule="evenodd"
     fill-opacity="0.2"
     fill="#000000"
     d="m 8.0381361,17.951774 v -1.953 H 32.038136 v 1.953 z m 19.3909999,19.334 c 1.524,0 2.76,-1.262 2.76,-2.819 v -14.279 h 1.84 v 15.944 c 0,1.557 -1.236,2.819 -2.76,2.819 h -18.48 c -1.1589999,0 -2.1499999,-0.73 -2.5579999,-1.765 0.229,0.064 0.469,0.1 0.718,0.1 z"
     id="path1-2" /></svg>
