<svg 
 xmlns="http://www.w3.org/2000/svg"
 xmlns:xlink="http://www.w3.org/1999/xlink"
 width="39px" height="49px">
<defs>
<filter id="Filter_0">
    <feOffset in="SourceAlpha" dx="0" dy="2" />
    <feGaussianBlur result="blurOut" stdDeviation="1" />
    <feFlood flood-color="rgb(56, 162, 226)" result="floodOut" />
    <feComposite operator="out" in="floodOut" in2="blurOut" result="compOut" />
    <feComposite operator="in" in="compOut" in2="SourceAlpha" />
    <feComponentTransfer><feFuncA type="linear" slope="1"/></feComponentTransfer>
    <feBlend mode="normal" in2="SourceGraphic" />
</filter>

</defs>
<g filter="url(#Filter_0)">
<path fill-rule="evenodd"  fill="rgb(64, 183, 255)"
 d="M35.999,47.999 L3.999,47.999 C2.895,47.999 1.999,47.104 1.999,45.999 L1.999,3.999 C1.999,2.895 2.895,1.999 3.999,1.999 L35.999,1.999 C37.104,1.999 37.999,2.895 37.999,3.999 L37.999,45.999 C37.999,47.104 37.104,47.999 35.999,47.999 ZM23.999,43.999 L27.999,43.999 L27.999,40.000 L23.999,40.000 L23.999,43.999 ZM23.999,37.999 L27.999,37.999 L27.999,33.999 L23.999,33.999 L23.999,37.999 ZM23.999,31.999 L27.999,31.999 L27.999,27.999 L23.999,27.999 L23.999,31.999 ZM23.999,25.999 L27.999,25.999 L27.999,21.999 L23.999,21.999 L23.999,25.999 ZM17.999,43.999 L21.999,43.999 L21.999,40.000 L17.999,40.000 L17.999,43.999 ZM17.999,37.999 L21.999,37.999 L21.999,33.999 L17.999,33.999 L17.999,37.999 ZM17.999,31.999 L21.999,31.999 L21.999,27.999 L17.999,27.999 L17.999,31.999 ZM17.999,25.999 L21.999,25.999 L21.999,21.999 L17.999,21.999 L17.999,25.999 ZM5.999,43.999 L15.999,43.999 L15.999,40.000 L5.999,40.000 L5.999,43.999 ZM11.999,27.999 L11.999,31.999 L15.999,31.999 L15.999,27.999 L11.999,27.999 ZM15.999,25.999 L15.999,21.999 L11.999,21.999 L11.999,25.999 L15.999,25.999 ZM11.999,33.999 L11.999,37.999 L15.999,37.999 L15.999,33.999 L11.999,33.999 ZM5.999,37.999 L9.999,37.999 L9.999,33.999 L5.999,33.999 L5.999,37.999 ZM5.999,31.999 L9.999,31.999 L9.999,27.999 L5.999,27.999 L5.999,31.999 ZM5.999,25.999 L9.999,25.999 L9.999,21.999 L5.999,21.999 L5.999,25.999 ZM33.999,5.999 L5.999,5.999 L5.999,17.999 L33.999,17.999 L33.999,5.999 ZM33.999,21.999 L29.999,21.999 L29.999,25.999 L33.999,25.999 L33.999,21.999 ZM33.999,27.999 L29.999,27.999 L29.999,31.999 L33.999,31.999 L33.999,27.999 ZM33.999,33.999 L29.999,33.999 L29.999,43.999 L33.999,43.999 L33.999,33.999 Z"/>
</g>
</svg>