<svg 
 xmlns="http://www.w3.org/2000/svg"
 xmlns:xlink="http://www.w3.org/1999/xlink"
 width="78px" height="79px">
<defs>
<filter filterUnits="userSpaceOnUse" id="Filter_0" x="0px" y="0px" width="78px" height="79px"  >
    <feOffset in="SourceAlpha" dx="0" dy="3" />
    <feGaussianBlur result="blurOut" stdDeviation="1.732" />
    <feFlood flood-color="rgb(0, 0, 0)" result="floodOut" />
    <feComposite operator="atop" in="floodOut" in2="blurOut" />
    <feComponentTransfer><feFuncA type="linear" slope="0.09"/></feComponentTransfer>
    <feMerge>
    <feMergeNode/>
    <feMergeNode in="SourceGraphic"/>
  </feMerge>
</filter>
<filter id="Filter_1">
    <feFlood flood-color="rgb(255, 255, 255)" flood-opacity="1" result="floodOut" />
    <feComposite operator="atop" in="floodOut" in2="SourceGraphic" result="compOut" />
    <feBlend mode="normal" in="compOut" in2="SourceGraphic" />
</filter>

</defs>
<g filter="url(#Filter_0)">
<g filter="url(#Filter_1)">
<path fill-rule="evenodd"  fill="rgb(129, 153, 181)"
 d="M2.117,30.816 C3.898,16.848 10.490,12.667 12.182,12.489 C13.875,12.311 15.478,11.688 18.595,14.802 C21.713,17.915 25.163,21.121 26.321,22.544 C27.479,23.968 28.126,27.791 26.968,29.214 C25.810,30.637 22.069,33.929 20.822,35.175 C19.575,36.419 19.665,37.933 20.110,38.822 C21.804,42.207 32.602,53.101 35.953,54.826 C36.839,55.281 38.352,55.389 39.614,54.158 C40.876,52.928 44.217,49.232 45.656,48.092 C47.095,46.953 50.914,47.645 52.325,48.819 C53.737,49.993 56.904,53.477 59.984,56.629 C63.064,59.779 62.420,61.373 62.221,63.061 C62.023,64.749 57.757,71.281 43.752,72.892 C26.547,74.870 -0.062,47.904 2.117,30.816 L2.117,30.816 ZM53.618,42.699 C50.494,42.699 47.526,42.029 44.850,40.826 C44.571,40.701 44.294,40.568 44.021,40.431 C43.422,40.130 41.759,41.659 39.522,42.269 C36.801,43.010 33.442,42.862 32.810,42.358 C32.208,41.879 34.747,40.341 36.340,38.565 C37.436,37.343 37.827,35.750 37.480,35.350 C37.321,35.167 37.164,34.980 37.010,34.791 C34.029,31.122 32.241,26.443 32.241,21.347 C32.241,9.555 41.812,-0.004 53.618,-0.004 C65.425,-0.004 74.996,9.555 74.996,21.347 C74.996,33.139 65.425,42.699 53.618,42.699 L53.618,42.699 ZM51.124,28.064 L51.124,33.913 C51.124,34.010 51.206,34.091 51.302,34.091 L55.934,34.091 C56.033,34.091 56.112,34.012 56.112,33.913 L56.112,28.020 C56.112,27.111 57.458,26.438 58.196,26.863 L63.267,29.788 C63.351,29.836 63.462,29.806 63.511,29.722 L65.827,25.716 C65.876,25.631 65.847,25.522 65.761,25.473 L60.651,22.526 C59.864,22.072 59.950,20.572 60.688,20.146 L65.761,17.221 C65.844,17.173 65.873,17.062 65.825,16.979 L63.509,12.972 C63.461,12.887 63.352,12.857 63.267,12.907 L58.156,15.853 C57.287,16.355 56.112,15.284 56.112,14.500 L56.112,8.780 C56.112,8.689 56.027,8.603 55.934,8.603 L51.302,8.603 C51.207,8.603 51.124,8.686 51.124,8.780 L51.124,14.545 C51.124,15.455 49.666,16.192 48.929,15.766 L43.969,12.907 C43.889,12.861 43.772,12.892 43.726,12.972 L41.411,16.979 C41.363,17.061 41.393,17.174 41.475,17.221 L46.473,20.103 C47.262,20.558 47.171,22.189 46.433,22.613 L41.475,25.473 C41.395,25.520 41.363,25.635 41.410,25.716 L43.726,29.722 C43.773,29.806 43.886,29.835 43.969,29.788 L48.966,26.905 C49.683,26.492 51.124,27.125 51.124,28.064 L51.124,28.064 ZM58.250,29.361 L58.250,33.913 C58.250,35.183 57.208,36.226 55.934,36.226 L51.302,36.226 C50.027,36.226 48.987,35.188 48.987,33.913 L48.987,29.360 L45.037,31.636 C43.933,32.274 42.511,31.893 41.874,30.790 L39.558,26.784 C38.922,25.683 39.304,24.260 40.406,23.624 L44.354,21.347 L40.406,19.070 C39.303,18.434 38.921,17.013 39.559,15.911 L41.875,11.904 C42.511,10.804 43.937,10.422 45.038,11.058 L48.987,13.335 L48.987,8.780 C48.987,7.508 50.028,6.468 51.302,6.468 L55.934,6.468 C57.206,6.468 58.250,7.510 58.250,8.780 L58.250,13.334 L62.198,11.058 C63.299,10.423 64.725,10.803 65.361,11.904 L67.677,15.911 C68.315,17.014 67.935,18.433 66.830,19.070 L62.882,21.347 L66.830,23.624 C67.931,24.259 68.315,25.682 67.678,26.784 L65.362,30.790 C64.724,31.893 63.304,32.274 62.199,31.636 L58.250,29.361 L58.250,29.361 ZM12.417,17.377 C13.428,16.406 14.906,17.941 13.896,18.912 C8.686,24.002 6.796,31.874 8.587,38.869 C8.944,40.224 6.882,40.766 6.525,39.411 C4.564,31.738 6.644,22.922 12.417,17.377 L12.417,17.377 Z"/>
</g></g>
</svg>